<?xml version="1.0" encoding="UTF-8"?>
<svg xmlns="http://www.w3.org/2000/svg" viewBox="0 0 500 500">
  <defs>
    <style>
      .e {
        fill: none;
        stroke: #000;
        stroke-linecap: round;
        stroke-linejoin: round;
        stroke-width: 6px;
      }

      .f {
        fill: #fff;
      }
    </style>
  </defs>
  <g id="a" data-name="Layer 3">
    <rect width="500" height="500"/>
  </g>
  <g id="b" data-name="Layer 4">
    <circle class="f" cx="250" cy="250" r="212.12"/>
  </g>
  <g id="c" data-name="Layer 1">
    <g>
      <path d="M389.56,106.73c-63.04-11.4-128.61-7.85-190.15,9.44,6.22-6.06,13.38-11.43,20.39-16.55,23.8-17.39,50.39-32.89,77.74-43.98,34.48,8.39,67,25.96,92.02,51.09Z"/>
      <path d="M60.61,292.01c43.71,41.94,94.13,74.7,151.03,96.27-38.34,2.78-77.35.02-114.68-8.86-22.44-26.97-37.82-59.62-44.32-94.17l.81-.8c.8.13,6.06,6.5,7.16,7.56Z"/>
      <path d="M300.59,383.84c-6.18,6.1-13.39,11.43-20.39,16.55-23.91,17.47-49.96,32.32-77.19,44-34.79-7.98-67.09-26.09-92.56-50.84,63.15,10.75,128.54,7.79,190.15-9.71Z"/>
      <path d="M343.41,426.59c30.49-56.42,46.8-119.64,50.03-183.79,14.02,35.9,24.01,73.71,27.11,112.3-18.8,29.91-45.32,55.7-77.14,71.49Z"/>
      <path d="M278.35,51.77l-44.09,25.1c-26.49,17.52-51.59,37.4-73.79,60.13-10.68,10.93-20.18,22.99-30.57,34.16,8.08-30.27,18.66-60.26,33.44-87.93,1.71-3.2,8.31-16.58,10.19-18.14,3.8-3.15,26.24-8.89,32.09-10.15,23.97-5.19,48.37-6.33,72.73-3.15Z"/>
      <path d="M156.59,73.43c-30.51,56.39-46.8,119.66-50.03,183.79-13.95-35.75-23.87-73.35-27.13-111.75,18.19-30.47,45.44-56.05,77.16-72.04Z"/>
      <path d="M370.1,328.87c-9.62,37.13-23.98,73.16-43.62,106.08-32.86,13.76-69.52,17.79-104.83,13.3l47.43-27.32c25.16-16.88,48.97-35.97,70.19-57.63,10.78-11,20.38-23.15,30.83-34.44Z"/>
      <path d="M447.38,215.57c-45.1-45.75-98.95-80.74-159.01-103.83,38.31-2.79,77.12.14,114.49,8.64,22.68,27.21,38.35,60.2,44.52,95.19Z"/>
      <path d="M138.24,339.4c-32.97-19.55-62.32-45.14-87.7-73.72-3.2-35.36,3.81-71.75,19.58-103.4,9.63,63.25,32.38,124.18,68.11,177.12Z"/>
      <path d="M361.76,160.61c33.06,19.46,62.18,45.28,87.7,73.72,3.18,35.36-3.78,71.75-19.58,103.4-9.6-63.26-32.4-124.14-68.11-177.12Z"/>
    </g>
  </g>
  <g id="d" data-name="Layer 2">
    <path class="e" d="M328.06,354.08c0-43.11-34.95-78.06-78.06-78.06s-78.06,34.95-78.06,78.06"/>
    <circle class="e" cx="250" cy="223.98" r="52.04"/>
    <circle class="e" cx="250" cy="250" r="130.1"/>
  </g>
</svg>