<?xml version="1.0" encoding="UTF-8"?>
<svg xmlns="http://www.w3.org/2000/svg" viewBox="0 0 500 500">
  <defs>
    <style>
      .c {
        fill: #d1fcd1;
      }

      .d {
        fill: #235c24;
      }

      .d, .e {
        fill-rule: evenodd;
      }

      .f {
        fill: #092309;
      }

      .g {
        fill: #59ce59;
      }

      .h {
        fill: #041504;
      }

      .e {
        fill: #a6ce39;
      }
    </style>
  </defs>
  <g id="a" data-name="Layer 2">
    <circle class="c" cx="250" cy="250" r="201"/>
  </g>
  <g id="b" data-name="Layer 1">
    <g>
      <path class="d" d="M250.48,250.04h0s0,0,0,0h0s0,0,0,0h0s0,0,0,0h0s0,0,0,0h0s0,0,0,0h0s0,0,0,0h0s0,0,0,0h0,0s0,0,0,0h0s0,0,0,0h0s0,0,0,0h0s0,0,0,0h0,0s0,0,0,0h0s0,0,0,0h0s0,0,0,0h0s0,0,0,0t0,0h0ZM188.87,118.22c2.7-19.46,8.01-36.83,12.97-49.09,10.43,8.11,23.74,20.49,35.84,35.97,9.19-17.36,20.12-31.88,28.96-41.69,7.03,11.19,15.3,27.37,21.37,46.05,14.58-13.16,29.81-23.06,41.48-29.26,2.78,12.92,5.02,30.95,4.34,50.58,18.2-7.38,35.9-11.48,48.99-13.31-1.81,13.09-5.87,30.8-13.22,49.01,19.63-.71,37.66,1.49,50.59,4.25-6.18,11.68-16.05,26.94-29.19,41.54,18.69,6.04,34.88,14.28,46.08,21.29-9.8,8.87-24.29,19.82-41.63,29.05,15.5,12.07,27.89,25.35,36.02,35.77-12.24,4.98-29.61,10.31-49.06,13.05,10.43,16.64,17.54,33.37,21.62,45.94-13.21.49-31.35-.43-50.57-4.51,4.11,19.21,5.07,37.35,4.6,50.56-12.58-4.06-29.31-11.13-45.97-21.53-2.71,19.45-8.01,36.83-12.97,49.08-10.43-8.11-23.74-20.48-35.84-35.96-9.2,17.36-20.12,31.87-28.97,41.69-7.03-11.19-15.3-27.37-21.37-46.05-14.58,13.16-29.81,23.06-41.48,29.26-2.78-12.92-5.02-30.95-4.34-50.58-18.2,7.39-35.9,11.48-48.99,13.31,1.81-13.09,5.87-30.8,13.22-49.01-19.63.71-37.66-1.49-50.59-4.25,6.18-11.68,16.05-26.94,29.19-41.54-18.69-6.04-34.88-14.28-46.08-21.29,9.8-8.87,24.29-19.82,41.63-29.05-15.5-12.07-27.89-25.35-36.02-35.77,12.24-4.98,29.61-10.31,49.06-13.05-10.43-16.64-17.54-33.37-21.62-45.94,13.21-.49,31.35.43,50.57,4.51-4.11-19.21-5.07-37.35-4.6-50.55,12.58,4.06,29.31,11.13,45.97,21.54h0ZM250.48,250.04s0,0,0,0h0Z"/>
      <path class="e" d="M250.48,250.04s0,0,0,0h0s0,0,0,0c0,0,0,0,0,0,0,0,0,0,0,0,0,0,0,0,0,0t0,0h0s0,0,0,0h0s0,0,0,0t0,0h0,0s0,0,0,0h0s0,0,0,0h0s0,0,0,0h0s0,0,0,0c0,0,0,0,0,0,0,0,0,0,0,0,0,0,0,0,0,0t0,0h0s0,0,0,0h0s0,0,0,0t0,0h0,0s0,0,0,0h0s0,0,0,0h0ZM142.16,259.61c-13.47-5.85-25.82-13.69-36.65-22.13,12.12-6.45,25.63-12.05,39.9-15.5-10.65-10.11-19.58-21.7-26.87-33.33,13.59-1.91,28.21-2.55,42.8-.91-6.56-13.14-10.98-27.09-13.85-40.51,13.43,2.85,27.38,7.25,40.53,13.78-1.66-14.59-1.05-29.21.84-42.8,11.64,7.27,23.25,16.17,33.38,26.81,3.43-14.28,9-27.8,15.43-39.93,8.45,10.81,16.31,23.15,22.19,36.61,8.11-12.25,17.97-23.05,28.16-32.25,4.25,13.05,7.41,27.33,8.33,41.99,11.81-8.74,24.77-15.51,37.49-20.67-.47,13.72-2.38,28.22-6.53,42.31,14.08-4.17,28.58-6.11,42.3-6.61-5.14,12.73-11.89,25.7-20.61,37.52,14.66.89,28.94,4.04,42,8.26-9.18,10.2-19.96,20.09-32.2,28.21,13.47,5.85,25.82,13.69,36.65,22.13-12.12,6.45-25.63,12.05-39.9,15.5,10.66,10.11,19.58,21.7,26.87,33.33-13.59,1.91-28.2,2.55-42.8.91,6.56,13.14,10.98,27.09,13.85,40.51-13.43-2.85-27.38-7.25-40.53-13.78,1.67,14.59,1.05,29.21-.84,42.8-11.64-7.27-23.25-16.17-33.38-26.81-3.43,14.28-9,27.8-15.43,39.93-8.45-10.81-16.31-23.15-22.19-36.61-8.11,12.25-17.97,23.05-28.16,32.25-4.24-13.05-7.41-27.33-8.33-41.99-11.81,8.74-24.77,15.51-37.49,20.67.48-13.72,2.38-28.22,6.53-42.31-14.08,4.17-28.58,6.11-42.3,6.61,5.14-12.73,11.89-25.7,20.61-37.52-14.66-.9-28.94-4.04-42.01-8.26,9.18-10.2,19.96-20.09,32.2-28.21h0Z"/>
      <g>
        <path class="f" d="M380.64,197.52l-135.74-11.76,49.21-71.11c31.12,10.99,57.87,31.47,75.43,59.42,4.36,6.95,9.31,15.51,11.11,23.45Z"/>
        <path class="f" d="M308.06,278.86l34.7,77.5c-30.6,27.78-73.03,39.65-113.98,34.37l79.28-111.87Z"/>
        <path class="f" d="M388.42,221.12c8.31,40.44-1.58,84.32-27.68,116.33l-57.67-123.72,85.35,7.39Z"/>
        <path class="f" d="M269.53,109.29l-78.07,111.97-35.83-78.42c30.75-27.18,73.08-39.89,113.9-33.55Z"/>
        <path class="f" d="M195.31,285.47l-84.94-7.36c-1.76-4.54-2.49-10.61-2.91-15.64-3.02-35.86,7.72-72.72,30.19-100.73l57.67,123.72Z"/>
        <path class="f" d="M253.42,314.25l-49.82,70.17c-38.67-13.17-71.6-43.57-85.92-81.93l135.74,11.76Z"/>
        <polygon class="f" points="229.65 207.53 276.22 211.81 296.07 253.67 269.25 292.3 224.04 288.83 221.46 287.24 202.31 245.55 229.65 207.53"/>
      </g>
      <g>
        <path class="g" d="M424.11,180.62l-179.72-15.57,65.15-94.15c41.2,14.55,76.62,41.67,99.87,78.67,5.78,9.2,12.33,20.54,14.7,31.05Z"/>
        <path class="g" d="M328.03,288.32l45.94,102.61c-40.51,36.78-96.69,52.49-150.91,45.51l104.97-148.12Z"/>
        <path class="g" d="M434.41,211.87c11,53.54-2.1,111.63-36.65,154.02l-76.35-163.81,113,9.79Z"/>
        <path class="g" d="M277.01,63.8l-103.37,148.25-47.44-103.83c40.71-35.98,96.75-52.81,150.81-44.42Z"/>
        <path class="g" d="M178.74,297.07l-112.46-9.74c-2.33-6.02-3.29-14.05-3.85-20.71-4-47.48,10.23-96.28,39.97-133.36l76.35,163.81Z"/>
        <path class="g" d="M255.67,335.18l-65.96,92.91c-51.2-17.44-94.8-57.68-113.76-108.47l179.72,15.57Z"/>
        <polygon class="h" points="224.18 194.2 285.86 199.54 312.15 254.97 276.63 306.11 214.95 300.77 188 244.21 224.18 194.2"/>
      </g>
    </g>
  </g>
</svg>